<svg xmlns="http://www.w3.org/2000/svg" xmlns:xlink="http://www.w3.org/1999/xlink" contentStyleType="text/css" height="697px" preserveAspectRatio="none" style="width:1600px;height:697px;background:#FFFFFF;" version="1.1" viewBox="0 0 1600 697" width="1600px" zoomAndPan="magnify"><defs/><g><!--class Object--><g id="elem_Object"><rect codeLine="1" fill="#F1F1F1" height="202.6719" id="Object" rx="2.5" ry="2.5" style="stroke:#181818;stroke-width:0.5;" width="204" x="949.5" y="28"/><ellipse cx="1024.75" cy="44" fill="#A9DCDF" rx="11" ry="11" style="stroke:#181818;stroke-width:1.0;"/><path d="M1024.8594,39.3438 L1023.7031,44.4219 L1026.0313,44.4219 L1024.8594,39.3438 Z M1023.375,37.1094 L1026.3594,37.1094 L1029.7188,49.5 L1027.2656,49.5 L1026.5,46.4375 L1023.2188,46.4375 L1022.4688,49.5 L1020.0313,49.5 L1023.375,37.1094 Z " fill="#000000"/><text fill="#000000" font-family="sans-serif" font-size="14" font-style="italic" lengthAdjust="spacing" textLength="45" x="1045.25" y="48.8467">Object</text><line style="stroke:#181818;stroke-width:0.5;" x1="950.5" x2="1152.5" y1="60" y2="60"/><ellipse cx="960.5" cy="73.6484" fill="none" rx="3" ry="3" style="stroke:#038048;stroke-width:1.0;"/><text fill="#000000" font-family="sans-serif" font-size="14" lengthAdjust="spacing" textLength="38" x="969.5" y="76.9951">id: int</text><ellipse cx="960.5" cy="89.9453" fill="none" rx="3" ry="3" style="stroke:#038048;stroke-width:1.0;"/><text fill="#000000" font-family="sans-serif" font-size="14" lengthAdjust="spacing" textLength="94" x="969.5" y="93.292">rel_pos: Point</text><ellipse cx="960.5" cy="106.2422" fill="none" rx="3" ry="3" style="stroke:#038048;stroke-width:1.0;"/><text fill="#000000" font-family="sans-serif" font-size="14" lengthAdjust="spacing" textLength="102" x="969.5" y="109.5889">abs_pos: Point</text><line style="stroke:#181818;stroke-width:1.0;" x1="950.5" x2="1152.5" y1="116.8906" y2="116.8906"/><ellipse cx="960.5" cy="130.5391" fill="#84BE84" rx="3" ry="3" style="stroke:#038048;stroke-width:1.0;"/><text fill="#000000" font-family="sans-serif" font-size="14" lengthAdjust="spacing" textLength="178" x="969.5" y="133.8857">set_rel_pos(Point rel_pos)</text><ellipse cx="960.5" cy="146.8359" fill="#84BE84" rx="3" ry="3" style="stroke:#038048;stroke-width:1.0;"/><text fill="#000000" font-family="sans-serif" font-size="14" lengthAdjust="spacing" textLength="90" x="969.5" y="150.1826">get_rel_pos()</text><ellipse cx="960.5" cy="163.1328" fill="#84BE84" rx="3" ry="3" style="stroke:#038048;stroke-width:1.0;"/><text fill="#000000" font-family="sans-serif" font-size="14" lengthAdjust="spacing" textLength="98" x="969.5" y="166.4795">get_abs_pos()</text><line style="stroke:#181818;stroke-width:1.0;stroke-dasharray:1.0,2.0;" x1="950.5" x2="1152.5" y1="173.7813" y2="173.7813"/><rect fill="#F24D5C" height="6" style="stroke:#C82930;stroke-width:1.0;" width="6" x="957.5" y="184.4297"/><text fill="#000000" font-family="sans-serif" font-size="14" lengthAdjust="spacing" textLength="142" x="969.5" y="190.7764">__eq__(Object other)</text><rect fill="#F24D5C" height="6" style="stroke:#C82930;stroke-width:1.0;" width="6" x="957.5" y="200.7266"/><text fill="#000000" font-family="sans-serif" font-size="14" lengthAdjust="spacing" textLength="132" x="969.5" y="207.0732">__lt__(Object other)</text><rect fill="#F24D5C" height="6" style="stroke:#C82930;stroke-width:1.0;" width="6" x="957.5" y="217.0234"/><text fill="#000000" font-family="sans-serif" font-size="14" lengthAdjust="spacing" textLength="138" x="969.5" y="223.3701">__gt__(Object other)</text></g><!--class Renderable--><g id="elem_Renderable"><rect codeLine="28" fill="#F1F1F1" height="145.7813" id="Renderable" rx="2.5" ry="2.5" style="stroke:#181818;stroke-width:0.5;" width="232" x="935.5" y="315"/><ellipse cx="1007.25" cy="331" fill="#A9DCDF" rx="11" ry="11" style="stroke:#181818;stroke-width:1.0;"/><path d="M1007.3594,326.3438 L1006.2031,331.4219 L1008.5313,331.4219 L1007.3594,326.3438 Z M1005.875,324.1094 L1008.8594,324.1094 L1012.2188,336.5 L1009.7656,336.5 L1009,333.4375 L1005.7188,333.4375 L1004.9688,336.5 L1002.5313,336.5 L1005.875,324.1094 Z " fill="#000000"/><text fill="#000000" font-family="sans-serif" font-size="14" font-style="italic" lengthAdjust="spacing" textLength="80" x="1027.75" y="335.8467">Renderable</text><line style="stroke:#181818;stroke-width:0.5;" x1="936.5" x2="1166.5" y1="347" y2="347"/><ellipse cx="946.5" cy="360.6484" fill="none" rx="3" ry="3" style="stroke:#038048;stroke-width:1.0;"/><text fill="#000000" font-family="sans-serif" font-size="14" lengthAdjust="spacing" textLength="171" x="955.5" y="363.9951">surface: pygame.Surface</text><ellipse cx="946.5" cy="376.9453" fill="none" rx="3" ry="3" style="stroke:#038048;stroke-width:1.0;"/><text fill="#000000" font-family="sans-serif" font-size="14" lengthAdjust="spacing" textLength="99" x="955.5" y="380.292">is_visible: bool</text><ellipse cx="946.5" cy="393.2422" fill="none" rx="3" ry="3" style="stroke:#038048;stroke-width:1.0;"/><text fill="#000000" font-family="sans-serif" font-size="14" lengthAdjust="spacing" textLength="63" x="955.5" y="396.5889">order: int</text><line style="stroke:#181818;stroke-width:1.0;" x1="936.5" x2="1166.5" y1="403.8906" y2="403.8906"/><ellipse cx="946.5" cy="417.5391" fill="#84BE84" rx="3" ry="3" style="stroke:#038048;stroke-width:1.0;"/><text fill="#000000" font-family="sans-serif" font-size="14" lengthAdjust="spacing" textLength="206" x="955.5" y="420.8857">draw(pygame.Surface screen)</text><ellipse cx="946.5" cy="433.8359" fill="#84BE84" rx="3" ry="3" style="stroke:#038048;stroke-width:1.0;"/><text fill="#000000" font-family="sans-serif" font-size="14" lengthAdjust="spacing" textLength="81" x="955.5" y="437.1826">set_visible()</text><ellipse cx="946.5" cy="450.1328" fill="#84BE84" rx="3" ry="3" style="stroke:#038048;stroke-width:1.0;"/><text fill="#000000" font-family="sans-serif" font-size="14" lengthAdjust="spacing" textLength="93" x="955.5" y="453.4795">set_invisilbe()</text></g><!--class Clickable--><g id="elem_Clickable"><rect codeLine="43" fill="#F1F1F1" height="170.0781" id="Clickable" rx="2.5" ry="2.5" style="stroke:#181818;stroke-width:0.5;" width="160" x="504.5" y="520.78"/><ellipse cx="549.75" cy="536.78" fill="#A9DCDF" rx="11" ry="11" style="stroke:#181818;stroke-width:1.0;"/><path d="M549.8594,532.1238 L548.7031,537.2019 L551.0313,537.2019 L549.8594,532.1238 Z M548.375,529.8894 L551.3594,529.8894 L554.7188,542.28 L552.2656,542.28 L551.5,539.2175 L548.2188,539.2175 L547.4688,542.28 L545.0313,542.28 L548.375,529.8894 Z " fill="#000000"/><text fill="#000000" font-family="sans-serif" font-size="14" font-style="italic" lengthAdjust="spacing" textLength="61" x="570.25" y="541.6267">Clickable</text><line style="stroke:#181818;stroke-width:0.5;" x1="505.5" x2="663.5" y1="552.78" y2="552.78"/><ellipse cx="515.5" cy="566.4284" fill="none" rx="3" ry="3" style="stroke:#038048;stroke-width:1.0;"/><text fill="#000000" font-family="sans-serif" font-size="14" lengthAdjust="spacing" textLength="71" x="524.5" y="569.7751">rect: Point</text><ellipse cx="515.5" cy="582.7253" fill="none" rx="3" ry="3" style="stroke:#038048;stroke-width:1.0;"/><text fill="#000000" font-family="sans-serif" font-size="14" lengthAdjust="spacing" textLength="134" x="524.5" y="586.072">is_highlighted: bool</text><line style="stroke:#181818;stroke-width:1.0;" x1="505.5" x2="663.5" y1="593.3738" y2="593.3738"/><ellipse cx="515.5" cy="607.0222" fill="#84BE84" rx="3" ry="3" style="stroke:#038048;stroke-width:1.0;"/><text fill="#000000" font-family="sans-serif" font-size="14" lengthAdjust="spacing" textLength="123" x="524.5" y="610.3689">enable_highlight()</text><ellipse cx="515.5" cy="623.3191" fill="#84BE84" rx="3" ry="3" style="stroke:#038048;stroke-width:1.0;"/><text fill="#000000" font-family="sans-serif" font-size="14" lengthAdjust="spacing" textLength="125" x="524.5" y="626.6657">disable_highlight()</text><line style="stroke:#181818;stroke-width:1.0;stroke-dasharray:1.0,2.0;" x1="505.5" x2="663.5" y1="633.9675" y2="633.9675"/><ellipse cx="515.5" cy="647.6159" fill="#84BE84" rx="3" ry="3" style="stroke:#038048;stroke-width:1.0;"/><text fill="#000000" font-family="sans-serif" font-size="14" lengthAdjust="spacing" textLength="134" x="524.5" y="650.9626">click(Cursor cursor)</text><ellipse cx="515.5" cy="663.9128" fill="#84BE84" rx="3" ry="3" style="stroke:#038048;stroke-width:1.0;"/><text fill="#000000" font-family="sans-serif" font-size="14" lengthAdjust="spacing" textLength="58" x="524.5" y="667.2595">declick()</text><ellipse cx="515.5" cy="680.2097" fill="#84BE84" rx="3" ry="3" style="stroke:#038048;stroke-width:1.0;"/><text fill="#000000" font-family="sans-serif" font-size="14" lengthAdjust="spacing" textLength="80" x="524.5" y="683.5564">hold_draw()</text></g><!--class Renderer--><g id="elem_Renderer"><rect codeLine="45" fill="#F1F1F1" height="113.1875" id="Renderer" rx="2.5" ry="2.5" style="stroke:#181818;stroke-width:0.5;" width="303" x="1290" y="331.39"/><ellipse cx="1404.75" cy="347.39" fill="#ADD1B2" rx="11" ry="11" style="stroke:#181818;stroke-width:1.0;"/><path d="M1407.7188,353.0306 Q1407.1406,353.3275 1406.5,353.4681 Q1405.8594,353.6244 1405.1563,353.6244 Q1402.6563,353.6244 1401.3281,351.9838 Q1400.0156,350.3275 1400.0156,347.2025 Q1400.0156,344.0775 1401.3281,342.4213 Q1402.6563,340.765 1405.1563,340.765 Q1405.8594,340.765 1406.5,340.9213 Q1407.1563,341.0775 1407.7188,341.3744 L1407.7188,344.0931 Q1407.0938,343.515 1406.5,343.2494 Q1405.9063,342.9681 1405.2813,342.9681 Q1403.9375,342.9681 1403.25,344.0463 Q1402.5625,345.1088 1402.5625,347.2025 Q1402.5625,349.2963 1403.25,350.3744 Q1403.9375,351.4369 1405.2813,351.4369 Q1405.9063,351.4369 1406.5,351.1713 Q1407.0938,350.89 1407.7188,350.3119 L1407.7188,353.0306 Z " fill="#000000"/><text fill="#000000" font-family="sans-serif" font-size="14" lengthAdjust="spacing" textLength="65" x="1425.25" y="352.2367">Renderer</text><line style="stroke:#181818;stroke-width:0.5;" x1="1291" x2="1592" y1="363.39" y2="363.39"/><ellipse cx="1301" cy="377.0384" fill="none" rx="3" ry="3" style="stroke:#038048;stroke-width:1.0;"/><text fill="#000000" font-family="sans-serif" font-size="14" lengthAdjust="spacing" textLength="72" x="1310" y="380.3851">size: Point</text><ellipse cx="1301" cy="393.3353" fill="none" rx="3" ry="3" style="stroke:#038048;stroke-width:1.0;"/><text fill="#000000" font-family="sans-serif" font-size="14" lengthAdjust="spacing" textLength="168" x="1310" y="396.682">screen: pygame.Surface</text><line style="stroke:#181818;stroke-width:1.0;" x1="1291" x2="1592" y1="403.9838" y2="403.9838"/><ellipse cx="1301" cy="417.6322" fill="#84BE84" rx="3" ry="3" style="stroke:#038048;stroke-width:1.0;"/><text fill="#000000" font-family="sans-serif" font-size="14" lengthAdjust="spacing" textLength="277" x="1310" y="420.9789">add_renderable(Renderable renderable)</text><ellipse cx="1301" cy="433.9291" fill="#84BE84" rx="3" ry="3" style="stroke:#038048;stroke-width:1.0;"/><text fill="#000000" font-family="sans-serif" font-size="14" lengthAdjust="spacing" textLength="157" x="1310" y="437.2757">step(Point cursor_pos)</text></g><!--class Cursor--><g id="elem_Cursor"><rect codeLine="55" fill="#F1F1F1" height="80.5938" id="Cursor" rx="2.5" ry="2.5" style="stroke:#181818;stroke-width:0.5;" width="174" x="718.5" y="339.39"/><ellipse cx="778.25" cy="355.39" fill="#ADD1B2" rx="11" ry="11" style="stroke:#181818;stroke-width:1.0;"/><path d="M781.2188,361.0306 Q780.6406,361.3275 780,361.4681 Q779.3594,361.6244 778.6563,361.6244 Q776.1563,361.6244 774.8281,359.9838 Q773.5156,358.3275 773.5156,355.2025 Q773.5156,352.0775 774.8281,350.4213 Q776.1563,348.765 778.6563,348.765 Q779.3594,348.765 780,348.9213 Q780.6563,349.0775 781.2188,349.3744 L781.2188,352.0931 Q780.5938,351.515 780,351.2494 Q779.4063,350.9681 778.7813,350.9681 Q777.4375,350.9681 776.75,352.0463 Q776.0625,353.1088 776.0625,355.2025 Q776.0625,357.2963 776.75,358.3744 Q777.4375,359.4369 778.7813,359.4369 Q779.4063,359.4369 780,359.1713 Q780.5938,358.89 781.2188,358.3119 L781.2188,361.0306 Z " fill="#000000"/><text fill="#000000" font-family="sans-serif" font-size="14" lengthAdjust="spacing" textLength="46" x="798.75" y="360.2367">Cursor</text><line style="stroke:#181818;stroke-width:0.5;" x1="719.5" x2="891.5" y1="371.39" y2="371.39"/><rect fill="none" height="6" style="stroke:#C82930;stroke-width:1.0;" width="6" x="726.5" y="382.0384"/><text fill="#000000" font-family="sans-serif" font-size="14" lengthAdjust="spacing" textLength="148" x="738.5" y="388.3851">mask: numpy.ndarray</text><line style="stroke:#181818;stroke-width:1.0;" x1="719.5" x2="891.5" y1="395.6869" y2="395.6869"/><ellipse cx="729.5" cy="409.3353" fill="#84BE84" rx="3" ry="3" style="stroke:#038048;stroke-width:1.0;"/><text fill="#000000" font-family="sans-serif" font-size="14" lengthAdjust="spacing" textLength="61" x="738.5" y="412.682">release()</text></g><!--class Clicker--><g id="elem_Clicker"><rect codeLine="65" fill="#F1F1F1" height="96.8906" id="Clicker" rx="2.5" ry="2.5" style="stroke:#181818;stroke-width:0.5;" width="272" x="797.5" y="566.32"/><ellipse cx="906.25" cy="582.32" fill="#ADD1B2" rx="11" ry="11" style="stroke:#181818;stroke-width:1.0;"/><path d="M909.2188,587.9606 Q908.6406,588.2575 908,588.3981 Q907.3594,588.5544 906.6563,588.5544 Q904.1563,588.5544 902.8281,586.9138 Q901.5156,585.2575 901.5156,582.1325 Q901.5156,579.0075 902.8281,577.3513 Q904.1563,575.695 906.6563,575.695 Q907.3594,575.695 908,575.8513 Q908.6563,576.0075 909.2188,576.3044 L909.2188,579.0231 Q908.5938,578.445 908,578.1794 Q907.4063,577.8981 906.7813,577.8981 Q905.4375,577.8981 904.75,578.9763 Q904.0625,580.0388 904.0625,582.1325 Q904.0625,584.2263 904.75,585.3044 Q905.4375,586.3669 906.7813,586.3669 Q907.4063,586.3669 908,586.1013 Q908.5938,585.82 909.2188,585.2419 L909.2188,587.9606 Z " fill="#000000"/><text fill="#000000" font-family="sans-serif" font-size="14" lengthAdjust="spacing" textLength="46" x="926.75" y="587.1667">Clicker</text><line style="stroke:#181818;stroke-width:0.5;" x1="798.5" x2="1068.5" y1="598.32" y2="598.32"/><line style="stroke:#181818;stroke-width:0.5;" x1="798.5" x2="1068.5" y1="606.32" y2="606.32"/><ellipse cx="808.5" cy="619.9684" fill="#84BE84" rx="3" ry="3" style="stroke:#038048;stroke-width:1.0;"/><text fill="#000000" font-family="sans-serif" font-size="14" lengthAdjust="spacing" textLength="226" x="817.5" y="623.3151">add_clickable(Clickable clickable)</text><ellipse cx="808.5" cy="636.2653" fill="#84BE84" rx="3" ry="3" style="stroke:#038048;stroke-width:1.0;"/><text fill="#000000" font-family="sans-serif" font-size="14" lengthAdjust="spacing" textLength="185" x="817.5" y="639.612">highlight(Point cursor_pos)</text><ellipse cx="808.5" cy="652.5622" fill="#84BE84" rx="3" ry="3" style="stroke:#038048;stroke-width:1.0;"/><text fill="#000000" font-family="sans-serif" font-size="14" lengthAdjust="spacing" textLength="246" x="817.5" y="655.9089">execute_click(bool is_button_down)</text></g><!--class Board--><g id="elem_Board"><rect codeLine="76" fill="#F1F1F1" height="227.2656" id="Board" rx="2.5" ry="2.5" style="stroke:#181818;stroke-width:0.5;" width="270" x="263.5" y="7"/><ellipse cx="373.75" cy="23" fill="#ADD1B2" rx="11" ry="11" style="stroke:#181818;stroke-width:1.0;"/><path d="M376.7188,28.6406 Q376.1406,28.9375 375.5,29.0781 Q374.8594,29.2344 374.1563,29.2344 Q371.6563,29.2344 370.3281,27.5938 Q369.0156,25.9375 369.0156,22.8125 Q369.0156,19.6875 370.3281,18.0313 Q371.6563,16.375 374.1563,16.375 Q374.8594,16.375 375.5,16.5313 Q376.1563,16.6875 376.7188,16.9844 L376.7188,19.7031 Q376.0938,19.125 375.5,18.8594 Q374.9063,18.5781 374.2813,18.5781 Q372.9375,18.5781 372.25,19.6563 Q371.5625,20.7188 371.5625,22.8125 Q371.5625,24.9063 372.25,25.9844 Q372.9375,27.0469 374.2813,27.0469 Q374.9063,27.0469 375.5,26.7813 Q376.0938,26.5 376.7188,25.9219 L376.7188,28.6406 Z " fill="#000000"/><text fill="#000000" font-family="sans-serif" font-size="14" lengthAdjust="spacing" textLength="41" x="394.25" y="27.8467">Board</text><line style="stroke:#181818;stroke-width:0.5;" x1="264.5" x2="532.5" y1="39" y2="39"/><ellipse cx="274.5" cy="52.6484" fill="none" rx="3" ry="3" style="stroke:#038048;stroke-width:1.0;"/><text fill="#000000" font-family="sans-serif" font-size="14" lengthAdjust="spacing" textLength="136" x="283.5" y="55.9951">board: chess.Board</text><ellipse cx="274.5" cy="68.9453" fill="none" rx="3" ry="3" style="stroke:#038048;stroke-width:1.0;"/><text fill="#000000" font-family="sans-serif" font-size="14" lengthAdjust="spacing" textLength="153" x="283.5" y="72.292">currently_selected: int</text><ellipse cx="274.5" cy="85.2422" fill="none" rx="3" ry="3" style="stroke:#038048;stroke-width:1.0;"/><text fill="#000000" font-family="sans-serif" font-size="14" lengthAdjust="spacing" textLength="117" x="283.5" y="88.5889">last_move: Tuple</text><line style="stroke:#181818;stroke-width:1.0;stroke-dasharray:1.0,2.0;" x1="264.5" x2="532.5" y1="95.8906" y2="95.8906"/><ellipse cx="274.5" cy="109.5391" fill="#84BE84" rx="3" ry="3" style="stroke:#038048;stroke-width:1.0;"/><text fill="#000000" font-family="sans-serif" font-size="14" lengthAdjust="spacing" textLength="199" x="283.5" y="112.8857">get_square(int square_code)</text><ellipse cx="274.5" cy="125.8359" fill="#84BE84" rx="3" ry="3" style="stroke:#038048;stroke-width:1.0;"/><text fill="#000000" font-family="sans-serif" font-size="14" lengthAdjust="spacing" textLength="218" x="283.5" y="129.1826">select_square(int square_code)</text><ellipse cx="274.5" cy="142.1328" fill="#84BE84" rx="3" ry="3" style="stroke:#038048;stroke-width:1.0;"/><text fill="#000000" font-family="sans-serif" font-size="14" lengthAdjust="spacing" textLength="125" x="283.5" y="145.4795">deselect_square()</text><ellipse cx="274.5" cy="158.4297" fill="#84BE84" rx="3" ry="3" style="stroke:#038048;stroke-width:1.0;"/><text fill="#000000" font-family="sans-serif" font-size="14" lengthAdjust="spacing" textLength="244" x="283.5" y="161.7764">square_clicked(int square_code, ...)</text><ellipse cx="274.5" cy="174.7266" fill="#84BE84" rx="3" ry="3" style="stroke:#038048;stroke-width:1.0;"/><text fill="#000000" font-family="sans-serif" font-size="14" lengthAdjust="spacing" textLength="224" x="283.5" y="178.0732">move_piece(int square_code, ...)</text><ellipse cx="274.5" cy="191.0234" fill="#84BE84" rx="3" ry="3" style="stroke:#038048;stroke-width:1.0;"/><text fill="#000000" font-family="sans-serif" font-size="14" lengthAdjust="spacing" textLength="106" x="283.5" y="194.3701">update_board()</text><ellipse cx="274.5" cy="207.3203" fill="#84BE84" rx="3" ry="3" style="stroke:#038048;stroke-width:1.0;"/><text fill="#000000" font-family="sans-serif" font-size="14" lengthAdjust="spacing" textLength="73" x="283.5" y="210.667">takeback()</text><ellipse cx="274.5" cy="223.6172" fill="#84BE84" rx="3" ry="3" style="stroke:#038048;stroke-width:1.0;"/><text fill="#000000" font-family="sans-serif" font-size="14" lengthAdjust="spacing" textLength="46" x="283.5" y="226.9639">reset()</text></g><!--class GUISquare--><g id="elem_GUISquare"><rect codeLine="91" fill="#F1F1F1" height="129.4844" id="GUISquare" rx="2.5" ry="2.5" style="stroke:#181818;stroke-width:0.5;" width="142" x="327.5" y="541.08"/><ellipse cx="359.15" cy="557.08" fill="#ADD1B2" rx="11" ry="11" style="stroke:#181818;stroke-width:1.0;"/><path d="M362.1188,562.7206 Q361.5406,563.0175 360.9,563.1581 Q360.2594,563.3144 359.5563,563.3144 Q357.0563,563.3144 355.7281,561.6738 Q354.4156,560.0175 354.4156,556.8925 Q354.4156,553.7675 355.7281,552.1113 Q357.0563,550.455 359.5563,550.455 Q360.2594,550.455 360.9,550.6113 Q361.5563,550.7675 362.1188,551.0644 L362.1188,553.7831 Q361.4938,553.205 360.9,552.9394 Q360.3063,552.6581 359.6813,552.6581 Q358.3375,552.6581 357.65,553.7363 Q356.9625,554.7988 356.9625,556.8925 Q356.9625,558.9863 357.65,560.0644 Q358.3375,561.1269 359.6813,561.1269 Q360.3063,561.1269 360.9,560.8613 Q361.4938,560.58 362.1188,560.0019 L362.1188,562.7206 Z " fill="#000000"/><text fill="#000000" font-family="sans-serif" font-size="14" lengthAdjust="spacing" textLength="73" x="376.85" y="561.9267">GUISquare</text><line style="stroke:#181818;stroke-width:0.5;" x1="328.5" x2="468.5" y1="573.08" y2="573.08"/><ellipse cx="338.5" cy="586.7284" fill="none" rx="3" ry="3" style="stroke:#038048;stroke-width:1.0;"/><text fill="#000000" font-family="sans-serif" font-size="14" lengthAdjust="spacing" textLength="102" x="347.5" y="590.0751">draw_state: str</text><ellipse cx="338.5" cy="603.0253" fill="none" rx="3" ry="3" style="stroke:#038048;stroke-width:1.0;"/><text fill="#000000" font-family="sans-serif" font-size="14" lengthAdjust="spacing" textLength="116" x="347.5" y="606.372">square_code: int</text><ellipse cx="338.5" cy="619.3222" fill="none" rx="3" ry="3" style="stroke:#038048;stroke-width:1.0;"/><text fill="#000000" font-family="sans-serif" font-size="14" lengthAdjust="spacing" textLength="106" x="347.5" y="622.6689">piece_code: int</text><ellipse cx="338.5" cy="635.6191" fill="none" rx="3" ry="3" style="stroke:#038048;stroke-width:1.0;"/><text fill="#000000" font-family="sans-serif" font-size="14" lengthAdjust="spacing" textLength="69" x="347.5" y="638.9657">held: bool</text><line style="stroke:#181818;stroke-width:1.0;stroke-dasharray:1.0,2.0;" x1="328.5" x2="468.5" y1="646.2675" y2="646.2675"/><rect fill="#F24D5C" height="6" style="stroke:#C82930;stroke-width:1.0;" width="6" x="335.5" y="656.9159"/><text fill="#000000" font-family="sans-serif" font-size="14" lengthAdjust="spacing" textLength="47" x="347.5" y="663.2626">_click()</text></g><!--class PromotionBubble--><g id="elem_PromotionBubble"><rect codeLine="105" fill="#F1F1F1" height="129.4844" id="PromotionBubble" rx="2.5" ry="2.5" style="stroke:#181818;stroke-width:0.5;" width="339" x="7" y="323.15"/><ellipse cx="112.25" cy="339.15" fill="#ADD1B2" rx="11" ry="11" style="stroke:#181818;stroke-width:1.0;"/><path d="M115.2188,344.7906 Q114.6406,345.0875 114,345.2281 Q113.3594,345.3844 112.6563,345.3844 Q110.1563,345.3844 108.8281,343.7438 Q107.5156,342.0875 107.5156,338.9625 Q107.5156,335.8375 108.8281,334.1813 Q110.1563,332.525 112.6563,332.525 Q113.3594,332.525 114,332.6813 Q114.6563,332.8375 115.2188,333.1344 L115.2188,335.8531 Q114.5938,335.275 114,335.0094 Q113.4063,334.7281 112.7813,334.7281 Q111.4375,334.7281 110.75,335.8063 Q110.0625,336.8688 110.0625,338.9625 Q110.0625,341.0563 110.75,342.1344 Q111.4375,343.1969 112.7813,343.1969 Q113.4063,343.1969 114,342.9313 Q114.5938,342.65 115.2188,342.0719 L115.2188,344.7906 Z " fill="#000000"/><text fill="#000000" font-family="sans-serif" font-size="14" lengthAdjust="spacing" textLength="120" x="132.75" y="343.9967">PromotionBubble</text><line style="stroke:#181818;stroke-width:0.5;" x1="8" x2="345" y1="355.15" y2="355.15"/><rect fill="none" height="6" style="stroke:#C82930;stroke-width:1.0;" width="6" x="15" y="365.7984"/><text fill="#000000" font-family="sans-serif" font-size="14" lengthAdjust="spacing" textLength="79" x="27" y="372.1451">mirror: bool</text><ellipse cx="18" cy="385.0953" fill="none" rx="3" ry="3" style="stroke:#038048;stroke-width:1.0;"/><text fill="#000000" font-family="sans-serif" font-size="14" lengthAdjust="spacing" textLength="116" x="27" y="388.442">square_code: int</text><ellipse cx="18" cy="401.3922" fill="none" rx="3" ry="3" style="stroke:#038048;stroke-width:1.0;"/><text fill="#000000" font-family="sans-serif" font-size="14" lengthAdjust="spacing" textLength="73" x="27" y="404.7389">color: bool</text><line style="stroke:#181818;stroke-width:1.0;stroke-dasharray:1.0,2.0;" x1="8" x2="345" y1="412.0406" y2="412.0406"/><ellipse cx="18" cy="425.6891" fill="#84BE84" rx="3" ry="3" style="stroke:#038048;stroke-width:1.0;"/><text fill="#000000" font-family="sans-serif" font-size="14" lengthAdjust="spacing" textLength="237" x="27" y="429.0357">setup(int square_code, bool color)</text><ellipse cx="18" cy="441.9859" fill="#84BE84" rx="3" ry="3" style="stroke:#038048;stroke-width:1.0;"/><text fill="#000000" font-family="sans-serif" font-size="14" lengthAdjust="spacing" textLength="313" x="27" y="445.3326">promotion_clicked(int piece_code, bool color)</text></g><!--class PromotionButton--><g id="elem_PromotionButton"><rect codeLine="114" fill="#F1F1F1" height="64.2969" id="PromotionButton" rx="2.5" ry="2.5" style="stroke:#181818;stroke-width:0.5;" width="150" x="122.5" y="573.67"/><ellipse cx="137.5" cy="589.67" fill="#ADD1B2" rx="11" ry="11" style="stroke:#181818;stroke-width:1.0;"/><path d="M140.4688,595.3106 Q139.8906,595.6075 139.25,595.7481 Q138.6094,595.9044 137.9063,595.9044 Q135.4063,595.9044 134.0781,594.2638 Q132.7656,592.6075 132.7656,589.4825 Q132.7656,586.3575 134.0781,584.7013 Q135.4063,583.045 137.9063,583.045 Q138.6094,583.045 139.25,583.2013 Q139.9063,583.3575 140.4688,583.6544 L140.4688,586.3731 Q139.8438,585.795 139.25,585.5294 Q138.6563,585.2481 138.0313,585.2481 Q136.6875,585.2481 136,586.3263 Q135.3125,587.3888 135.3125,589.4825 Q135.3125,591.5763 136,592.6544 Q136.6875,593.7169 138.0313,593.7169 Q138.6563,593.7169 139.25,593.4513 Q139.8438,593.17 140.4688,592.5919 L140.4688,595.3106 Z " fill="#000000"/><text fill="#000000" font-family="sans-serif" font-size="14" lengthAdjust="spacing" textLength="118" x="151.5" y="594.5167">PromotionButton</text><line style="stroke:#181818;stroke-width:0.5;" x1="123.5" x2="271.5" y1="605.67" y2="605.67"/><ellipse cx="133.5" cy="619.3184" fill="none" rx="3" ry="3" style="stroke:#038048;stroke-width:1.0;"/><text fill="#000000" font-family="sans-serif" font-size="14" lengthAdjust="spacing" textLength="106" x="142.5" y="622.6651">piece_code: int</text><line style="stroke:#181818;stroke-width:0.5;" x1="123.5" x2="271.5" y1="629.9669" y2="629.9669"/></g><!--class FloatingText--><g id="elem_FloatingText"><rect codeLine="124" fill="#F1F1F1" height="113.1875" id="FloatingText" rx="2.5" ry="2.5" style="stroke:#181818;stroke-width:0.5;" width="224" x="451.5" y="331.3"/><ellipse cx="517.25" cy="347.3" fill="#ADD1B2" rx="11" ry="11" style="stroke:#181818;stroke-width:1.0;"/><path d="M520.2188,352.9406 Q519.6406,353.2375 519,353.3781 Q518.3594,353.5344 517.6563,353.5344 Q515.1563,353.5344 513.8281,351.8938 Q512.5156,350.2375 512.5156,347.1125 Q512.5156,343.9875 513.8281,342.3313 Q515.1563,340.675 517.6563,340.675 Q518.3594,340.675 519,340.8313 Q519.6563,340.9875 520.2188,341.2844 L520.2188,344.0031 Q519.5938,343.425 519,343.1594 Q518.4063,342.8781 517.7813,342.8781 Q516.4375,342.8781 515.75,343.9563 Q515.0625,345.0188 515.0625,347.1125 Q515.0625,349.2063 515.75,350.2844 Q516.4375,351.3469 517.7813,351.3469 Q518.4063,351.3469 519,351.0813 Q519.5938,350.8 520.2188,350.2219 L520.2188,352.9406 Z " fill="#000000"/><text fill="#000000" font-family="sans-serif" font-size="14" lengthAdjust="spacing" textLength="84" x="537.75" y="352.1467">FloatingText</text><line style="stroke:#181818;stroke-width:0.5;" x1="452.5" x2="674.5" y1="363.3" y2="363.3"/><ellipse cx="462.5" cy="376.9484" fill="none" rx="3" ry="3" style="stroke:#038048;stroke-width:1.0;"/><text fill="#000000" font-family="sans-serif" font-size="14" lengthAdjust="spacing" textLength="126" x="471.5" y="380.2951">font: pygame.Font</text><ellipse cx="462.5" cy="393.2453" fill="none" rx="3" ry="3" style="stroke:#038048;stroke-width:1.0;"/><text fill="#000000" font-family="sans-serif" font-size="14" lengthAdjust="spacing" textLength="131" x="471.5" y="396.592">background: Tuple</text><ellipse cx="462.5" cy="409.5422" fill="none" rx="3" ry="3" style="stroke:#038048;stroke-width:1.0;"/><text fill="#000000" font-family="sans-serif" font-size="14" lengthAdjust="spacing" textLength="116" x="471.5" y="412.8889">curr_color: Tuple</text><line style="stroke:#181818;stroke-width:1.0;stroke-dasharray:1.0,2.0;" x1="452.5" x2="674.5" y1="420.1906" y2="420.1906"/><ellipse cx="462.5" cy="433.8391" fill="#84BE84" rx="3" ry="3" style="stroke:#038048;stroke-width:1.0;"/><text fill="#000000" font-family="sans-serif" font-size="14" lengthAdjust="spacing" textLength="198" x="471.5" y="437.1857">set_text(str text, Tuple color)</text></g><!--link Object to Object--><g id="link_Object_Object"><path codeLine="15" d="M1153.41,81.5 C1203.95,76.07 1250.5,91.9 1250.5,129 C1250.5,166.1 1269.8811,183.2242 1219.3411,177.7842 " fill="none" id="Object-to-Object" style="stroke:#181818;stroke-width:1.0;"/><polygon fill="none" points="1207.41,176.5,1212.9475,181.1191,1219.3411,177.7842,1213.8036,173.1651,1207.41,176.5" style="stroke:#181818;stroke-width:1.0;"/><text fill="#000000" font-family="sans-serif" font-size="13" lengthAdjust="spacing" textLength="16" x="1161.4744" y="64.4041">0..</text></g><!--reverse link Object to Renderable--><g id="link_Object_Renderable"><path d="M1051.5,247.69 C1051.5,276.04 1051.5,288.36 1051.5,314.73 " fill="none" id="Object-backto-Renderable" style="stroke:#181818;stroke-width:1.0;"/><polygon fill="none" points="1051.5,229.69,1045.5,247.69,1057.5,247.69,1051.5,229.69" style="stroke:#181818;stroke-width:1.0;"/></g><!--reverse link Renderable to Clickable--><g id="link_Renderable_Clickable"><path d="M918.6535,461.1073 C913.0835,463.5573 924,458.64 918.5,460.78 C817.27,500.25 777.83,470.52 681.5,520.78 C675.87,523.72 670.29,527.04 664.82,530.63 " fill="none" id="Renderable-backto-Clickable" style="stroke:#181818;stroke-width:1.0;"/><polygon fill="none" points="935.13,453.86,916.2377,455.6151,921.0692,466.5995,935.13,453.86" style="stroke:#181818;stroke-width:1.0;"/></g><!--link Renderable to Renderer--><g id="link_Renderable_Renderer"><path codeLine="53" d="M1167.86,387.89 C1206.28,387.89 1157.66,387.89 1198.32,387.89 " fill="none" id="Renderable-to-Renderer" style="stroke:#181818;stroke-width:1.0;"/><polygon fill="none" points="1210.32,387.89,1204.32,383.89,1198.32,387.89,1204.32,391.89,1210.32,387.89" style="stroke:#181818;stroke-width:1.0;"/><text fill="#000000" font-family="sans-serif" font-size="13" lengthAdjust="spacing" textLength="16" x="1175.4382" y="384.5039">0..</text></g><!--link Cursor to Clickable--><g id="link_Cursor_Clickable"><path codeLine="61" d="M767.26,419.23 C739.09,447.83 699.77,487.76 664.81,523.26 " fill="none" id="Cursor-Clickable" style="stroke:#181818;stroke-width:1.0;"/></g><!--link Cursor to Renderable--><g id="link_Cursor_Renderable"><path codeLine="62" d="M892.18,394.97 C906.05,395.87 902.618,396.0139 917.048,396.4439 " fill="none" id="Cursor-to-Renderable" style="stroke:#181818;stroke-width:1.0;"/><polygon fill="none" points="935.04,396.98,917.2267,390.4465,916.8693,402.4412,935.04,396.98" style="stroke:#181818;stroke-width:1.0;"/></g><!--link Clickable to Clicker--><g id="link_Clickable_Clicker"><path codeLine="71" d="M664.67,618.98 C703.98,621.71 675.5605,623.3306 720.5205,623.7406 " fill="none" id="Clickable-to-Clicker" style="stroke:#181818;stroke-width:1.0;"/><polygon fill="none" points="732.52,623.85,726.5567,619.7955,720.5205,623.7406,726.4838,627.7951,732.52,623.85" style="stroke:#181818;stroke-width:1.0;"/><text fill="#000000" font-family="sans-serif" font-size="13" lengthAdjust="spacing" textLength="16" x="672.5226" y="616.557">0..</text></g><!--link Clickable to Clicker--><g id="link_Clickable_Clicker"><path codeLine="72" d="M664.67,596.54 C703.98,595.74 752.56,596.39 797.52,598.18 " fill="none" id="Clickable-Clicker" style="stroke:#181818;stroke-width:1.0;"/></g><!--link Cursor to Clicker--><g id="link_Cursor_Clicker"><path codeLine="73" d="M826.92,419.38 C849.2,459.92 884.07,523.37 907.81,566.57 " fill="none" id="Cursor-Clicker" style="stroke:#181818;stroke-width:1.0;"/></g><!--reverse link Board to GUISquare--><g id="link_Board_GUISquare"><path codeLine="100" d="M398.5,263.0328 C398.5,358.4228 398.5,462.74 398.5,540.85 " fill="none" id="Board-backto-GUISquare" style="stroke:#181818;stroke-width:1.0;"/><polygon fill="none" points="398.5,251.0328,394.5,257.0328,398.5,263.0328,402.5,257.0328,398.5,251.0328" style="stroke:#181818;stroke-width:1.0;"/><text fill="#000000" font-family="sans-serif" font-size="13" lengthAdjust="spacing" textLength="16" x="381.625" y="529.9975">64</text></g><!--link Board to Renderable--><g id="link_Board_Renderable"><path codeLine="102" d="M533.35,165.89 C639.56,202.23 790.54,256.95 918.5,315 C924,317.49 913.3833,312.2671 918.9933,314.9871 " fill="none" id="Board-to-Renderable" style="stroke:#181818;stroke-width:1.0;"/><polygon fill="none" points="935.19,322.84,921.611,309.5882,916.3757,320.386,935.19,322.84" style="stroke:#181818;stroke-width:1.0;"/></g><!--link GUISquare to Clickable--><g id="link_GUISquare_Clickable"><path codeLine="103" d="M469.7,605.82 C481.21,605.82 474.72,605.82 486.23,605.82 " fill="none" id="GUISquare-to-Clickable" style="stroke:#181818;stroke-width:1.0;"/><polygon fill="none" points="504.23,605.82,486.23,599.82,486.23,611.82,504.23,605.82" style="stroke:#181818;stroke-width:1.0;"/></g><!--link PromotionBubble to Renderable--><g id="link_PromotionBubble_Renderable"><path codeLine="118" d="M321.38,322.76 C362.73,307.23 408.41,292.87 452,285 C550.19,267.26 805.67,255.53 901,285 C922.47,291.64 928.4024,292.8804 947.7324,305.1204 " fill="none" id="PromotionBubble-to-Renderable" style="stroke:#181818;stroke-width:1.0;"/><polygon fill="none" points="962.94,314.75,950.9423,300.0512,944.5226,310.1896,962.94,314.75" style="stroke:#181818;stroke-width:1.0;"/></g><!--link PromotionButton to Clickable--><g id="link_PromotionButton_Clickable"><path codeLine="119" d="M222.42,573.42 C246.1,545.51 284.49,507.22 328,490.78 C386.62,468.63 411.08,466.86 469,490.78 C485.74,497.7 487.7192,496.5609 501.6892,508.6509 " fill="none" id="PromotionButton-to-Clickable" style="stroke:#181818;stroke-width:1.0;"/><polygon fill="none" points="515.3,520.43,505.6156,504.114,497.7629,513.1878,515.3,520.43" style="stroke:#181818;stroke-width:1.0;"/></g><!--reverse link Board to PromotionBubble--><g id="link_Board_PromotionBubble"><path codeLine="121" d="M296.9702,260.0068 C271.5302,290.4168 252.55,295.97 230.17,322.73 " fill="none" id="Board-backto-PromotionBubble" style="stroke:#181818;stroke-width:1.0;"/><polygon fill="none" points="304.67,250.8028,297.7521,252.8382,296.9702,260.0068,303.8881,257.9714,304.67,250.8028" style="stroke:#181818;stroke-width:1.0;"/><text fill="#000000" font-family="sans-serif" font-size="13" lengthAdjust="spacing" textLength="8" x="227.2922" y="312.3105">1</text></g><!--reverse link PromotionBubble to PromotionButton--><g id="link_PromotionBubble_PromotionButton"><path codeLine="122" d="M183.9024,465.0336 C187.7624,504.6936 191.38,541.89 194.43,573.3 " fill="none" id="PromotionBubble-backto-PromotionButton" style="stroke:#181818;stroke-width:1.0;"/><polygon fill="#181818" points="182.74,453.09,179.34,459.4493,183.9024,465.0336,187.3024,458.6743,182.74,453.09" style="stroke:#181818;stroke-width:1.0;"/><text fill="#000000" font-family="sans-serif" font-size="13" lengthAdjust="spacing" textLength="8" x="185.0381" y="562.5013">4</text></g><!--link FloatingText to Renderable--><g id="link_FloatingText_Renderable"><path codeLine="131" d="M626.67,330.81 C650.95,312.47 680.07,294.46 710,285 C790.94,259.42 819.9,259.93 901,285 C922.47,291.64 928.4024,292.8804 947.7324,305.1204 " fill="none" id="FloatingText-to-Renderable" style="stroke:#181818;stroke-width:1.0;"/><polygon fill="none" points="962.94,314.75,950.9423,300.0512,944.5226,310.1896,962.94,314.75" style="stroke:#181818;stroke-width:1.0;"/></g><rect fill="#FFFFFF" height="17.1328" style="stroke:#000000;stroke-width:0.5;" width="46" x="1153.41" y="72.9336"/><text fill="#000000" font-family="sans-serif" font-size="13" lengthAdjust="spacing" textLength="42" x="1155.41" y="86.0005">parent</text><rect fill="#FFFFFF" height="17.1328" style="stroke:#000000;stroke-width:0.5;" width="54" x="1153.41" y="167.9336"/><text fill="#000000" font-family="sans-serif" font-size="13" lengthAdjust="spacing" textLength="50" x="1155.41" y="181.0005">children</text><rect fill="#FFFFFF" height="17.1328" style="stroke:#000000;stroke-width:0.5;" width="80" x="1210.82" y="379.3236"/><text fill="#000000" font-family="sans-serif" font-size="13" lengthAdjust="spacing" textLength="76" x="1212.82" y="392.3905">renderables</text><rect fill="#FFFFFF" height="17.1328" style="stroke:#000000;stroke-width:0.5;" width="50" x="742.26" y="419.23"/><text fill="#000000" font-family="sans-serif" font-size="13" lengthAdjust="spacing" textLength="46" x="744.26" y="432.2969">holding</text><rect fill="#FFFFFF" height="17.1328" style="stroke:#000000;stroke-width:0.5;" width="44" x="885.81" y="549.9372"/><text fill="#000000" font-family="sans-serif" font-size="13" lengthAdjust="spacing" textLength="40" x="887.81" y="563.0041">cursor</text><rect fill="#FFFFFF" height="17.1328" style="stroke:#000000;stroke-width:0.5;" width="65" x="733.02" y="615.2836"/><text fill="#000000" font-family="sans-serif" font-size="13" lengthAdjust="spacing" textLength="61" x="735.02" y="628.3505">clickables</text><rect fill="#FFFFFF" height="17.1328" style="stroke:#000000;stroke-width:0.5;" width="90" x="708.02" y="589.6136"/><text fill="#000000" font-family="sans-serif" font-size="13" lengthAdjust="spacing" textLength="86" x="710.02" y="602.6805">curr_clickable</text><rect fill="#FFFFFF" height="17.1328" style="stroke:#000000;stroke-width:0.5;" width="81" x="358" y="233.9"/><text fill="#000000" font-family="sans-serif" font-size="13" lengthAdjust="spacing" textLength="77" x="360" y="246.9669">gui_squares</text><rect fill="#FFFFFF" height="17.1328" style="stroke:#000000;stroke-width:0.5;" width="70" x="269.67" y="233.67"/><text fill="#000000" font-family="sans-serif" font-size="13" lengthAdjust="spacing" textLength="66" x="271.67" y="246.7369">promotion</text><!--SRC=[VLKzRzim4DtrAmXFIXC9BH1qC3ebG8fE3PfqCWA18XcR3Iqg99N4RVtVUoHFeYIh6Gn9n_juxztnJ6lh36MEVAz_2NZyoGWXvqJoDP6DYnz6gAhLTarkzM2ZjPtPYYASME4g3CZ3MHz-5ewte-DamMpHKfOXNLM9vwhA4PTsEs7Ey42v_nniJm-EMOQ63Tj9nOre7eWkb7Xq1LbzBCiLsRGKhEu1DSYoZFQg_10D5uRMIg0ojZEFb8arQGzRkXVbNVmEPz9MBz9AS5wJMciLZDf0Wa5C58aR-ffFCn3BZ13DsI0YfigJHJRUfcflEow356yEFkm2asibsTE82BI5kKbB0VvERdSAVaxmH04nYyP79nS4ngLTiiScdZDVDR_kZDM6iF30C16FujTEAru5KQRC4kYUs8XhbZ55RMyIfYTcvMyn8HQLNMePKgESmr3sYVDHZMJ5DZZHubX7Dd6o0VE0OfDYx7pIKkOUF4eJe1TxQf_MfEdsxQ5iE3M67aOeuTe8Qh7v6BVnoibc-q0Ahb-R8YcMZLXy-OieObGs5FVEWt1U1TQ7vqdwmOQz6XfzgaEOapV1EYTYgjmFaP-ikdDEDvK76V5ZwSsG_KIiH2KvTyOaZ40QQIrw0YhmwDeJsbUQ6ewaQ_- -9cmdh2t3GPnRA0GhGHqg2wgpS1_wUO8Shjhh5nYo-wvLOZJkVfVPvmxMIUwbYQyLqxmVdv3iNHSkfauOY6w17fz7Na3zCZfwN5Kh1HFlE7Kjfz2Xm1qBEFeaQZfSI0CeN9oqgDdNdz_kGYxKpL_MoZf8ioPmMISWeLXIAs2PsNP2ZVPBl-_xXG0rOuSssqwY364uO30-NwuIb6nnncCJq_WE1wEuoEdMwBrsKZTNNJqinc8lZT5cjC4NQJ6jnaxOVn2jQq-53vSWH4HrsxxmfA59gMd4SG6llqpOYRd0nsLPvcIN59eL6FemuCKkV5hDqsNpz1-yt-NgD6MaSgCqTR2txc6l8uz7tRXXHzzerDdFvDRehk6ZstOUzq1imVmE-dzA1sbp64lYNowYIv9pIPune7y0]--></g></svg>