<svg width="560" height="560">
    <rect x="0" y="0" width="70" height="70" fill="#f0d9b5" />
    <rect x="0" y="70" width="70" height="70" fill="#b58863" />
    <rect x="0" y="140" width="70" height="70" fill="#f0d9b5" />
    <rect x="0" y="210" width="70" height="70" fill="#b58863" />
    <rect x="0" y="280" width="70" height="70" fill="#f0d9b5" />
    <rect x="0" y="350" width="70" height="70" fill="#b58863" />
    <rect x="0" y="420" width="70" height="70" fill="#f0d9b5" />
    <rect x="0" y="490" width="70" height="70" fill="#b58863" />
    <rect x="70" y="0" width="70" height="70" fill="#b58863" />
    <rect x="70" y="70" width="70" height="70" fill="#f0d9b5" />
    <rect x="70" y="140" width="70" height="70" fill="#b58863" />
    <rect x="70" y="210" width="70" height="70" fill="#f0d9b5" />
    <rect x="70" y="280" width="70" height="70" fill="#b58863" />
    <rect x="70" y="350" width="70" height="70" fill="#f0d9b5" />
    <rect x="70" y="420" width="70" height="70" fill="#b58863" />
    <rect x="70" y="490" width="70" height="70" fill="#f0d9b5" />
    <rect x="140" y="0" width="70" height="70" fill="#f0d9b5" />
    <rect x="140" y="70" width="70" height="70" fill="#b58863" />
    <rect x="140" y="140" width="70" height="70" fill="#f0d9b5" />
    <rect x="140" y="210" width="70" height="70" fill="#b58863" />
    <rect x="140" y="280" width="70" height="70" fill="#f0d9b5" />
    <rect x="140" y="350" width="70" height="70" fill="#b58863" />
    <rect x="140" y="420" width="70" height="70" fill="#f0d9b5" />
    <rect x="140" y="490" width="70" height="70" fill="#b58863" />
    <rect x="210" y="0" width="70" height="70" fill="#b58863" />
    <rect x="210" y="70" width="70" height="70" fill="#f0d9b5" />
    <rect x="210" y="140" width="70" height="70" fill="#b58863" />
    <rect x="210" y="210" width="70" height="70" fill="#f0d9b5" />
    <rect x="210" y="280" width="70" height="70" fill="#b58863" />
    <rect x="210" y="350" width="70" height="70" fill="#f0d9b5" />
    <rect x="210" y="420" width="70" height="70" fill="#b58863" />
    <rect x="210" y="490" width="70" height="70" fill="#f0d9b5" />
    <rect x="280" y="0" width="70" height="70" fill="#f0d9b5" />
    <rect x="280" y="70" width="70" height="70" fill="#b58863" />
    <rect x="280" y="140" width="70" height="70" fill="#f0d9b5" />
    <rect x="280" y="210" width="70" height="70" fill="#b58863" />
    <rect x="280" y="280" width="70" height="70" fill="#f0d9b5" />
    <rect x="280" y="350" width="70" height="70" fill="#b58863" />
    <rect x="280" y="420" width="70" height="70" fill="#f0d9b5" />
    <rect x="280" y="490" width="70" height="70" fill="#b58863" />
    <rect x="350" y="0" width="70" height="70" fill="#b58863" />
    <rect x="350" y="70" width="70" height="70" fill="#f0d9b5" />
    <rect x="350" y="140" width="70" height="70" fill="#b58863" />
    <rect x="350" y="210" width="70" height="70" fill="#f0d9b5" />
    <rect x="350" y="280" width="70" height="70" fill="#b58863" />
    <rect x="350" y="350" width="70" height="70" fill="#f0d9b5" />
    <rect x="350" y="420" width="70" height="70" fill="#b58863" />
    <rect x="350" y="490" width="70" height="70" fill="#f0d9b5" />
    <rect x="420" y="0" width="70" height="70" fill="#f0d9b5" />
    <rect x="420" y="70" width="70" height="70" fill="#b58863" />
    <rect x="420" y="140" width="70" height="70" fill="#f0d9b5" />
    <rect x="420" y="210" width="70" height="70" fill="#b58863" />
    <rect x="420" y="280" width="70" height="70" fill="#f0d9b5" />
    <rect x="420" y="350" width="70" height="70" fill="#b58863" />
    <rect x="420" y="420" width="70" height="70" fill="#f0d9b5" />
    <rect x="420" y="490" width="70" height="70" fill="#b58863" />
    <rect x="490" y="0" width="70" height="70" fill="#b58863" />
    <rect x="490" y="70" width="70" height="70" fill="#f0d9b5" />
    <rect x="490" y="140" width="70" height="70" fill="#b58863" />
    <rect x="490" y="210" width="70" height="70" fill="#f0d9b5" />
    <rect x="490" y="280" width="70" height="70" fill="#b58863" />
    <rect x="490" y="350" width="70" height="70" fill="#f0d9b5" />
    <rect x="490" y="420" width="70" height="70" fill="#b58863" />
    <rect x="490" y="490" width="70" height="70" fill="#f0d9b5" />
</svg>